<?xml version="1.0" encoding="utf-8"?>
<!-- Svg Vector Icons : http://www.onlinewebfonts.com/icon -->
<!DOCTYPE svg PUBLIC "-//W3C//DTD SVG 1.1//EN" "http://www.w3.org/Graphics/SVG/1.1/DTD/svg11.dtd">
<svg version="1.1" xmlns="http://www.w3.org/2000/svg" xmlns:xlink="http://www.w3.org/1999/xlink" x="0px" y="0px" viewBox="0 0 256 256" enable-background="new 0 0 256 256" xml:space="preserve">
<metadata> Svg Vector Icons : http://www.onlinewebfonts.com/icon </metadata>
<g><g><path fill="#000000" d="M173.1,32.1l-9-18.1c-1.3-2.5-3.8-4.1-6.6-4.1h-59c-2.8,0-5.3,1.6-6.6,4.1l-9,18.1h-36c-4.1,0-7.4,3.3-7.4,7.4v199.1c0,4.1,3.3,7.4,7.4,7.4h162.3c4.1,0,7.4-3.3,7.4-7.4V39.5c0-4.1-3.3-7.4-7.4-7.4H173.1z M103.1,24.7h49.9l14.8,29.5H88.3L103.1,24.7z M201.8,231.3H54.2V46.9h21.3l-5.7,11.4c-1.1,2.3-1,5,0.3,7.2c1.3,2.2,3.7,3.5,6.3,3.5h103.3c0,0,0,0,0.1,0c4.1,0,7.4-3.3,7.4-7.4c0-1.5-0.5-3-1.3-4.1l-5.3-10.6h21.3L201.8,231.3L201.8,231.3z"/><path fill="#000000" d="M179.6,91.1h-66.4c-4.1,0-7.4,3.3-7.4,7.4c0,4.1,3.3,7.4,7.4,7.4h66.4c4.1,0,7.4-3.3,7.4-7.4C187,94.4,183.7,91.1,179.6,91.1z"/><path fill="#000000" d="M179.6,128h-66.4c-4.1,0-7.4,3.3-7.4,7.4s3.3,7.4,7.4,7.4h66.4c4.1,0,7.4-3.3,7.4-7.4S183.7,128,179.6,128z"/><path fill="#000000" d="M179.6,164.9h-66.4c-4.1,0-7.4,3.3-7.4,7.4s3.3,7.4,7.4,7.4h66.4c4.1,0,7.4-3.3,7.4-7.4S183.7,164.9,179.6,164.9z"/><path fill="#000000" d="M179.6,201.8h-66.4c-4.1,0-7.4,3.3-7.4,7.4c0,4.1,3.3,7.4,7.4,7.4h66.4c4.1,0,7.4-3.3,7.4-7.4C187,205.1,183.7,201.8,179.6,201.8z"/><path fill="#000000" d="M83.8,91.1h-7.4c-4.1,0-7.4,3.3-7.4,7.4c0,4.1,3.3,7.4,7.4,7.4h7.4c4.1,0,7.4-3.3,7.4-7.4C91.1,94.4,87.8,91.1,83.8,91.1z"/><path fill="#000000" d="M83.8,128h-7.4c-4.1,0-7.4,3.3-7.4,7.4s3.3,7.4,7.4,7.4h7.4c4.1,0,7.4-3.3,7.4-7.4S87.8,128,83.8,128z"/><path fill="#000000" d="M83.8,164.9h-7.4c-4.1,0-7.4,3.3-7.4,7.4s3.3,7.4,7.4,7.4h7.4c4.1,0,7.4-3.3,7.4-7.4S87.8,164.9,83.8,164.9z"/><path fill="#000000" d="M83.8,201.8h-7.4c-4.1,0-7.4,3.3-7.4,7.4c0,4.1,3.3,7.4,7.4,7.4h7.4c4.1,0,7.4-3.3,7.4-7.4C91.1,205.1,87.8,201.8,83.8,201.8z"/></g></g>
</svg>